# Blender v2.63 (sub 0) OBJ File: ''
# www.blender.org
o Cube_Cube.001
v -0.500000 -0.500000 0.500000
v -0.500000 -0.500000 -0.500000
v 0.500000 -0.500000 -0.500000
v 0.500000 -0.500000 0.500000
v -0.500000 0.500000 0.500000
v -0.500000 0.500000 -0.500000
v 0.500000 0.500000 -0.500000
v 0.500000 0.500000 0.500000
vn -0.577349 0.577349 0.577349
vn -0.577349 0.577349 -0.577349
vn -0.577349 -0.577349 -0.577349
vn 0.577349 0.577349 -0.577349
vn 0.577349 -0.577349 -0.577349
vn 0.577349 0.577349 0.577349
vn 0.577349 -0.577349 0.577349
vn -0.577349 -0.577349 0.577349
s 1
f 5//1 6//2 2//3
f 6//2 7//4 3//5
f 7//4 8//6 4//7
f 5//1 1//8 8//6
f 1//8 2//3 3//5
f 8//6 7//4 6//2
f 1//8 5//1 2//3
f 2//3 6//2 3//5
f 3//5 7//4 4//7
f 8//6 1//8 4//7
f 4//7 1//8 3//5
f 5//1 8//6 6//2
