# Blender v2.63 (sub 0) OBJ File: 'cube_uv_mapped.blend'
# www.blender.org
o Cube
v 1.000000 -1.000000 -1.000000
v 1.000000 -1.000000 1.000000
v -1.000000 -1.000000 1.000000
v -1.000000 -1.000000 -1.000000
v 1.000000 1.000000 -0.999999
v 0.999999 1.000000 1.000001
v -1.000000 1.000000 1.000000
v -1.000000 1.000000 -1.000000
vt 0.400762 0.600236
vt 0.598949 0.600236
vt 0.598949 0.798423
vt 0.400762 0.798423
vt 0.400762 0.402050
vt 0.400762 0.203864
vt 0.598948 0.203864
vt 0.598949 0.402050
vt 0.797136 0.600236
vt 0.797136 0.798423
vt 0.598949 0.996610
vt 0.400762 0.996610
vt 0.202575 0.600236
vt 0.202575 0.798423
vn 0.000000 -1.000000 0.000000
vn 0.000000 1.000000 0.000000
vn 1.000000 0.000000 0.000000
vn -0.000000 -0.000000 1.000000
vn -1.000000 -0.000000 -0.000000
vn 0.000000 0.000000 -1.000000
s off
f 1/1/1 2/2/1 3/3/1
f 1/1/1 3/3/1 4/4/1
f 5/5/2 8/6/2 7/7/2
f 5/5/2 7/7/2 6/8/2
f 1/1/3 5/5/3 6/8/3
f 1/1/3 6/8/3 2/2/3
f 2/2/4 6/9/4 7/10/4
f 2/2/4 7/10/4 3/3/4
f 3/3/5 7/11/5 8/12/5
f 3/3/5 8/12/5 4/4/5
f 5/13/6 1/1/6 4/4/6
f 5/13/6 4/4/6 8/14/6
