# Blender v2.63 (sub 0) OBJ File: 'cube_multiple_textures.blend'
# www.blender.org
mtllib cube_multiple_textures.mtl
o Cube
v 1.000000 -1.000000 -1.000000
v 1.000000 -1.000000 1.000000
v -1.000000 -1.000000 1.000000
v -1.000000 -1.000000 -1.000000
v 1.000000 1.000000 -0.999999
v 0.999999 1.000000 1.000001
v -1.000000 1.000000 1.000000
v -1.000000 1.000000 -1.000000
vt 0.409784 0.749144
vt 0.409784 0.499688
vt 0.659240 0.499688
vt 0.659240 0.749144
vt 0.409784 0.000775
vt 0.659241 0.000775
vt 0.659240 0.250232
vt 0.409784 0.250232
vt 0.160327 0.749144
vt 0.160327 0.499687
vt 0.908697 0.499688
vt 0.908697 0.749144
vt 0.409784 0.998601
vt 0.659240 0.998601
vn 0.000000 -1.000000 0.000000
vn 0.000000 1.000000 0.000000
vn 1.000000 0.000000 0.000000
vn -0.000000 -0.000000 1.000000
vn -1.000000 -0.000000 -0.000000
vn 0.000000 0.000000 -1.000000
usemtl Brick
s off
f 1/1/1 2/2/1 3/3/1
f 1/1/1 3/3/1 4/4/1
f 5/5/2 8/6/2 7/7/2
f 5/5/2 7/7/2 6/8/2
f 1/1/3 5/9/3 6/10/3
f 1/1/3 6/10/3 2/2/3
f 2/2/4 6/8/4 7/7/4
f 2/2/4 7/7/4 3/3/4
f 3/3/5 7/11/5 8/12/5
f 3/3/5 8/12/5 4/4/5
f 5/13/6 1/1/6 4/4/6
f 5/13/6 4/4/6 8/14/6
