# Blender v2.63 (sub 0) OBJ File: ''
# www.blender.org
o Grid_Grid.002
v 5.000000 0.000000 5.000000
v 3.888889 0.000000 5.000000
v 2.777778 0.000000 5.000000
v 1.666667 0.000000 5.000000
v 0.555556 0.000000 5.000000
v -0.555555 0.000000 5.000000
v -1.666667 0.000000 5.000000
v -2.777778 0.000000 5.000000
v -3.888889 0.000000 5.000000
v -5.000000 0.000000 5.000000
v 5.000000 0.000000 3.888889
v 3.888889 0.000000 3.888889
v 2.777778 0.000000 3.888889
v 1.666667 0.000000 3.888889
v 0.555556 0.000000 3.888889
v -0.555555 0.000000 3.888889
v -1.666667 0.000000 3.888889
v -2.777778 0.000000 3.888889
v -3.888889 0.000000 3.888889
v -5.000000 0.000000 3.888889
v 5.000000 0.000000 2.777778
v 3.888889 0.000000 2.777778
v 2.777778 0.000000 2.777778
v 1.666667 0.000000 2.777778
v 0.555556 0.000000 2.777778
v -0.555555 0.000000 2.777778
v -1.666667 0.000000 2.777778
v -2.777778 0.000000 2.777778
v -3.888889 0.000000 2.777778
v -5.000000 0.000000 2.777778
v 5.000000 0.000000 1.666667
v 3.888889 0.000000 1.666667
v 2.777778 0.000000 1.666667
v 1.666667 0.000000 1.666667
v 0.555556 0.000000 1.666667
v -0.555555 0.000000 1.666667
v -1.666667 0.000000 1.666667
v -2.777778 0.000000 1.666667
v -3.888889 0.000000 1.666667
v -5.000000 0.000000 1.666667
v 5.000000 0.000000 0.555556
v 3.888889 0.000000 0.555556
v 2.777778 0.000000 0.555556
v 1.666667 0.000000 0.555556
v 0.555556 0.000000 0.555556
v -0.555555 0.000000 0.555556
v -1.666667 0.000000 0.555556
v -2.777778 0.000000 0.555556
v -3.888889 0.000000 0.555556
v -5.000000 0.000000 0.555556
v 5.000000 0.000000 -0.555555
v 3.888889 0.000000 -0.555555
v 2.777778 0.000000 -0.555555
v 1.666667 0.000000 -0.555555
v 0.555556 0.000000 -0.555555
v -0.555555 0.000000 -0.555555
v -1.666667 0.000000 -0.555555
v -2.777778 0.000000 -0.555555
v -3.888889 0.000000 -0.555555
v -5.000000 0.000000 -0.555555
v 5.000000 0.000000 -1.666667
v 3.888889 0.000000 -1.666667
v 2.777778 0.000000 -1.666667
v 1.666667 0.000000 -1.666667
v 0.555556 0.000000 -1.666667
v -0.555555 0.000000 -1.666667
v -1.666667 0.000000 -1.666667
v -2.777778 0.000000 -1.666667
v -3.888889 0.000000 -1.666667
v -5.000000 0.000000 -1.666667
v 5.000000 0.000000 -2.777778
v 3.888889 0.000000 -2.777778
v 2.777778 0.000000 -2.777778
v 1.666667 0.000000 -2.777778
v 0.555556 0.000000 -2.777778
v -0.555555 0.000000 -2.777778
v -1.666667 0.000000 -2.777778
v -2.777778 0.000000 -2.777778
v -3.888889 0.000000 -2.777778
v -5.000000 0.000000 -2.777778
v 5.000000 0.000000 -3.888889
v 3.888889 0.000000 -3.888889
v 2.777778 0.000000 -3.888889
v 1.666667 0.000000 -3.888889
v 0.555556 0.000000 -3.888889
v -0.555555 0.000000 -3.888889
v -1.666667 0.000000 -3.888889
v -2.777778 0.000000 -3.888889
v -3.888889 0.000000 -3.888889
v -5.000000 0.000000 -3.888889
v 5.000000 0.000000 -5.000000
v 3.888889 0.000000 -5.000000
v 2.777778 0.000000 -5.000000
v 1.666667 0.000000 -5.000000
v 0.555556 0.000000 -5.000000
v -0.555555 0.000000 -5.000000
v -1.666667 0.000000 -5.000000
v -2.777778 0.000000 -5.000000
v -3.888889 0.000000 -5.000000
v -5.000000 0.000000 -5.000000
vn -0.000000 1.000000 0.000000
s off
f 19//1 20//1 10//1
f 13//1 14//1 4//1
f 14//1 15//1 5//1
f 15//1 16//1 6//1
f 16//1 17//1 7//1
f 17//1 18//1 8//1
f 11//1 12//1 2//1
f 18//1 19//1 9//1
f 12//1 13//1 3//1
f 26//1 27//1 17//1
f 27//1 28//1 18//1
f 21//1 22//1 12//1
f 28//1 29//1 19//1
f 22//1 23//1 13//1
f 29//1 30//1 20//1
f 23//1 24//1 14//1
f 24//1 25//1 15//1
f 25//1 26//1 16//1
f 36//1 37//1 27//1
f 37//1 38//1 28//1
f 31//1 32//1 22//1
f 38//1 39//1 29//1
f 32//1 33//1 23//1
f 39//1 40//1 30//1
f 33//1 34//1 24//1
f 34//1 35//1 25//1
f 35//1 36//1 26//1
f 45//1 46//1 36//1
f 46//1 47//1 37//1
f 47//1 48//1 38//1
f 41//1 42//1 32//1
f 48//1 49//1 39//1
f 42//1 43//1 33//1
f 49//1 50//1 40//1
f 43//1 44//1 34//1
f 44//1 45//1 35//1
f 55//1 56//1 46//1
f 56//1 57//1 47//1
f 57//1 58//1 48//1
f 51//1 52//1 42//1
f 58//1 59//1 49//1
f 52//1 53//1 43//1
f 59//1 60//1 50//1
f 53//1 54//1 44//1
f 54//1 55//1 45//1
f 64//1 65//1 55//1
f 65//1 66//1 56//1
f 66//1 67//1 57//1
f 67//1 68//1 58//1
f 61//1 62//1 52//1
f 68//1 69//1 59//1
f 62//1 63//1 53//1
f 69//1 70//1 60//1
f 63//1 64//1 54//1
f 74//1 75//1 65//1
f 75//1 76//1 66//1
f 76//1 77//1 67//1
f 77//1 78//1 68//1
f 71//1 72//1 62//1
f 78//1 79//1 69//1
f 72//1 73//1 63//1
f 79//1 80//1 70//1
f 73//1 74//1 64//1
f 89//1 90//1 80//1
f 83//1 84//1 74//1
f 84//1 85//1 75//1
f 85//1 86//1 76//1
f 86//1 87//1 77//1
f 87//1 88//1 78//1
f 81//1 82//1 72//1
f 88//1 89//1 79//1
f 82//1 83//1 73//1
f 99//1 100//1 90//1
f 93//1 94//1 84//1
f 94//1 95//1 85//1
f 95//1 96//1 86//1
f 96//1 97//1 87//1
f 97//1 98//1 88//1
f 91//1 92//1 82//1
f 98//1 99//1 89//1
f 92//1 93//1 83//1
f 9//1 19//1 10//1
f 3//1 13//1 4//1
f 4//1 14//1 5//1
f 5//1 15//1 6//1
f 6//1 16//1 7//1
f 7//1 17//1 8//1
f 1//1 11//1 2//1
f 8//1 18//1 9//1
f 2//1 12//1 3//1
f 16//1 26//1 17//1
f 17//1 27//1 18//1
f 11//1 21//1 12//1
f 18//1 28//1 19//1
f 12//1 22//1 13//1
f 19//1 29//1 20//1
f 13//1 23//1 14//1
f 14//1 24//1 15//1
f 15//1 25//1 16//1
f 26//1 36//1 27//1
f 27//1 37//1 28//1
f 21//1 31//1 22//1
f 28//1 38//1 29//1
f 22//1 32//1 23//1
f 29//1 39//1 30//1
f 23//1 33//1 24//1
f 24//1 34//1 25//1
f 25//1 35//1 26//1
f 35//1 45//1 36//1
f 36//1 46//1 37//1
f 37//1 47//1 38//1
f 31//1 41//1 32//1
f 38//1 48//1 39//1
f 32//1 42//1 33//1
f 39//1 49//1 40//1
f 33//1 43//1 34//1
f 34//1 44//1 35//1
f 45//1 55//1 46//1
f 46//1 56//1 47//1
f 47//1 57//1 48//1
f 41//1 51//1 42//1
f 48//1 58//1 49//1
f 42//1 52//1 43//1
f 49//1 59//1 50//1
f 43//1 53//1 44//1
f 44//1 54//1 45//1
f 54//1 64//1 55//1
f 55//1 65//1 56//1
f 56//1 66//1 57//1
f 57//1 67//1 58//1
f 51//1 61//1 52//1
f 58//1 68//1 59//1
f 52//1 62//1 53//1
f 59//1 69//1 60//1
f 53//1 63//1 54//1
f 64//1 74//1 65//1
f 65//1 75//1 66//1
f 66//1 76//1 67//1
f 67//1 77//1 68//1
f 61//1 71//1 62//1
f 68//1 78//1 69//1
f 62//1 72//1 63//1
f 69//1 79//1 70//1
f 63//1 73//1 64//1
f 79//1 89//1 80//1
f 73//1 83//1 74//1
f 74//1 84//1 75//1
f 75//1 85//1 76//1
f 76//1 86//1 77//1
f 77//1 87//1 78//1
f 71//1 81//1 72//1
f 78//1 88//1 79//1
f 72//1 82//1 73//1
f 89//1 99//1 90//1
f 83//1 93//1 84//1
f 84//1 94//1 85//1
f 85//1 95//1 86//1
f 86//1 96//1 87//1
f 87//1 97//1 88//1
f 81//1 91//1 82//1
f 88//1 98//1 89//1
f 82//1 92//1 83//1
