# Blender v2.63 (sub 0) OBJ File: 'shadow_box.blend'
# www.blender.org
o bottom_grid_bottom
v 5.000000 0.000000 5.000000
v 3.888889 0.000000 5.000000
v 2.777778 0.000000 5.000000
v 1.666667 0.000000 5.000000
v 0.555556 0.000000 5.000000
v -0.555555 0.000000 5.000000
v -1.666667 0.000000 5.000000
v -2.777778 0.000000 5.000000
v -3.888889 0.000000 5.000000
v -5.000000 0.000000 5.000000
v 5.000000 0.000000 3.888889
v 3.888889 0.000000 3.888889
v 2.777778 0.000000 3.888889
v 1.666667 0.000000 3.888889
v 0.555556 0.000000 3.888889
v -0.555555 0.000000 3.888889
v -1.666667 0.000000 3.888889
v -2.777778 0.000000 3.888889
v -3.888889 0.000000 3.888889
v -5.000000 0.000000 3.888889
v 5.000000 0.000000 2.777778
v 3.888889 0.000000 2.777778
v 2.777778 0.000000 2.777778
v 1.666667 0.000000 2.777778
v 0.555556 0.000000 2.777778
v -0.555555 0.000000 2.777778
v -1.666667 0.000000 2.777778
v -2.777778 0.000000 2.777778
v -3.888889 0.000000 2.777778
v -5.000000 0.000000 2.777778
v 5.000000 0.000000 1.666667
v 3.888889 0.000000 1.666667
v 2.777778 0.000000 1.666667
v 1.666667 0.000000 1.666667
v 0.555556 0.000000 1.666667
v -0.555555 0.000000 1.666667
v -1.666667 0.000000 1.666667
v -2.777778 0.000000 1.666667
v -3.888889 0.000000 1.666667
v -5.000000 0.000000 1.666667
v 5.000000 0.000000 0.555556
v 3.888889 0.000000 0.555556
v 2.777778 0.000000 0.555556
v 1.666667 0.000000 0.555556
v 0.555556 0.000000 0.555556
v -0.555555 0.000000 0.555556
v -1.666667 0.000000 0.555556
v -2.777778 0.000000 0.555556
v -3.888889 0.000000 0.555556
v -5.000000 0.000000 0.555556
v 5.000000 0.000000 -0.555555
v 3.888889 0.000000 -0.555555
v 2.777778 0.000000 -0.555555
v 1.666667 0.000000 -0.555555
v 0.555556 0.000000 -0.555555
v -0.555555 0.000000 -0.555555
v -1.666667 0.000000 -0.555555
v -2.777778 0.000000 -0.555555
v -3.888889 0.000000 -0.555555
v -5.000000 0.000000 -0.555555
v 5.000000 0.000000 -1.666667
v 3.888889 0.000000 -1.666667
v 2.777778 0.000000 -1.666667
v 1.666667 0.000000 -1.666667
v 0.555556 0.000000 -1.666667
v -0.555555 0.000000 -1.666667
v -1.666667 0.000000 -1.666667
v -2.777778 0.000000 -1.666667
v -3.888889 0.000000 -1.666667
v -5.000000 0.000000 -1.666667
v 5.000000 0.000000 -2.777778
v 3.888889 0.000000 -2.777778
v 2.777778 0.000000 -2.777778
v 1.666667 0.000000 -2.777778
v 0.555556 0.000000 -2.777778
v -0.555555 0.000000 -2.777778
v -1.666667 0.000000 -2.777778
v -2.777778 0.000000 -2.777778
v -3.888889 0.000000 -2.777778
v -5.000000 0.000000 -2.777778
v 5.000000 0.000000 -3.888889
v 3.888889 0.000000 -3.888889
v 2.777778 0.000000 -3.888889
v 1.666667 0.000000 -3.888889
v 0.555556 0.000000 -3.888889
v -0.555555 0.000000 -3.888889
v -1.666667 0.000000 -3.888889
v -2.777778 0.000000 -3.888889
v -3.888889 0.000000 -3.888889
v -5.000000 0.000000 -3.888889
v 5.000000 0.000000 -5.000000
v 3.888889 0.000000 -5.000000
v 2.777778 0.000000 -5.000000
v 1.666667 0.000000 -5.000000
v 0.555556 0.000000 -5.000000
v -0.555555 0.000000 -5.000000
v -1.666667 0.000000 -5.000000
v -2.777778 0.000000 -5.000000
v -3.888889 0.000000 -5.000000
v -5.000000 0.000000 -5.000000
v -5.000003 0.000000 5.000000
v -5.000002 1.111111 5.000000
v -5.000002 2.222222 5.000000
v -5.000001 3.333333 5.000000
v -5.000000 4.444444 5.000000
v -5.000000 5.555555 5.000000
v -4.999999 6.666666 5.000000
v -4.999998 7.777778 5.000000
v -4.999998 8.888888 5.000000
v -4.999997 10.000000 5.000000
v -5.000003 0.000000 3.888889
v -5.000002 1.111111 3.888889
v -5.000002 2.222222 3.888889
v -5.000001 3.333333 3.888889
v -5.000000 4.444444 3.888889
v -5.000000 5.555555 3.888889
v -4.999999 6.666666 3.888889
v -4.999998 7.777778 3.888889
v -4.999998 8.888888 3.888889
v -4.999997 10.000000 3.888889
v -5.000003 0.000000 2.777778
v -5.000002 1.111111 2.777778
v -5.000002 2.222222 2.777778
v -5.000001 3.333333 2.777778
v -5.000000 4.444444 2.777778
v -5.000000 5.555555 2.777778
v -4.999999 6.666666 2.777778
v -4.999998 7.777778 2.777778
v -4.999998 8.888888 2.777778
v -4.999997 10.000000 2.777778
v -5.000003 0.000000 1.666667
v -5.000002 1.111111 1.666667
v -5.000002 2.222222 1.666667
v -5.000001 3.333333 1.666667
v -5.000000 4.444444 1.666667
v -5.000000 5.555555 1.666667
v -4.999999 6.666666 1.666667
v -4.999998 7.777778 1.666667
v -4.999998 8.888888 1.666667
v -4.999997 10.000000 1.666667
v -5.000003 0.000000 0.555556
v -5.000002 1.111111 0.555556
v -5.000002 2.222222 0.555556
v -5.000001 3.333333 0.555556
v -5.000000 4.444444 0.555556
v -5.000000 5.555555 0.555556
v -4.999999 6.666666 0.555556
v -4.999998 7.777778 0.555556
v -4.999998 8.888888 0.555556
v -4.999997 10.000000 0.555556
v -5.000003 0.000000 -0.555555
v -5.000002 1.111111 -0.555555
v -5.000002 2.222222 -0.555555
v -5.000001 3.333333 -0.555555
v -5.000000 4.444444 -0.555555
v -5.000000 5.555555 -0.555555
v -4.999999 6.666666 -0.555555
v -4.999998 7.777778 -0.555555
v -4.999998 8.888888 -0.555555
v -4.999997 10.000000 -0.555555
v -5.000003 0.000000 -1.666667
v -5.000002 1.111111 -1.666667
v -5.000002 2.222222 -1.666667
v -5.000001 3.333333 -1.666667
v -5.000000 4.444444 -1.666667
v -5.000000 5.555555 -1.666667
v -4.999999 6.666666 -1.666667
v -4.999998 7.777778 -1.666667
v -4.999998 8.888888 -1.666667
v -4.999997 10.000000 -1.666667
v -5.000003 0.000000 -2.777778
v -5.000002 1.111111 -2.777778
v -5.000002 2.222222 -2.777778
v -5.000001 3.333333 -2.777778
v -5.000000 4.444444 -2.777778
v -5.000000 5.555555 -2.777778
v -4.999999 6.666666 -2.777778
v -4.999998 7.777778 -2.777778
v -4.999998 8.888888 -2.777778
v -4.999997 10.000000 -2.777778
v -5.000003 0.000000 -3.888889
v -5.000002 1.111111 -3.888889
v -5.000002 2.222222 -3.888889
v -5.000001 3.333333 -3.888889
v -5.000000 4.444444 -3.888889
v -5.000000 5.555555 -3.888889
v -4.999999 6.666666 -3.888889
v -4.999998 7.777778 -3.888889
v -4.999998 8.888888 -3.888889
v -4.999997 10.000000 -3.888889
v -5.000003 0.000000 -5.000000
v -5.000002 1.111111 -5.000000
v -5.000002 2.222222 -5.000000
v -5.000001 3.333333 -5.000000
v -5.000000 4.444444 -5.000000
v -5.000000 5.555555 -5.000000
v -4.999999 6.666666 -5.000000
v -4.999998 7.777778 -5.000000
v -4.999998 8.888888 -5.000000
v -4.999997 10.000000 -5.000000
v 5.000000 0.000000 -5.000003
v 3.888889 0.000000 -5.000003
v 2.777778 0.000000 -5.000003
v 1.666667 0.000000 -5.000003
v 0.555556 0.000000 -5.000003
v -0.555555 0.000000 -5.000003
v -1.666667 0.000000 -5.000003
v -2.777778 0.000000 -5.000003
v -3.888889 0.000000 -5.000003
v -5.000000 0.000000 -5.000003
v 5.000000 1.111111 -5.000002
v 3.888889 1.111111 -5.000002
v 2.777778 1.111111 -5.000002
v 1.666667 1.111111 -5.000002
v 0.555556 1.111111 -5.000002
v -0.555555 1.111111 -5.000002
v -1.666667 1.111111 -5.000002
v -2.777778 1.111111 -5.000002
v -3.888889 1.111111 -5.000002
v -5.000000 1.111111 -5.000002
v 5.000000 2.222222 -5.000002
v 3.888889 2.222222 -5.000002
v 2.777778 2.222222 -5.000002
v 1.666667 2.222222 -5.000002
v 0.555556 2.222222 -5.000002
v -0.555555 2.222222 -5.000002
v -1.666667 2.222222 -5.000002
v -2.777778 2.222222 -5.000002
v -3.888889 2.222222 -5.000002
v -5.000000 2.222222 -5.000002
v 5.000000 3.333333 -5.000001
v 3.888889 3.333333 -5.000001
v 2.777778 3.333333 -5.000001
v 1.666667 3.333333 -5.000001
v 0.555556 3.333333 -5.000001
v -0.555555 3.333333 -5.000001
v -1.666667 3.333333 -5.000001
v -2.777778 3.333333 -5.000001
v -3.888889 3.333333 -5.000001
v -5.000000 3.333333 -5.000001
v 5.000000 4.444444 -5.000000
v 3.888889 4.444444 -5.000000
v 2.777778 4.444444 -5.000000
v 1.666667 4.444444 -5.000000
v 0.555556 4.444444 -5.000000
v -0.555555 4.444444 -5.000000
v -1.666667 4.444444 -5.000000
v -2.777778 4.444444 -5.000000
v -3.888889 4.444444 -5.000000
v -5.000000 4.444444 -5.000000
v 5.000000 5.555555 -5.000000
v 3.888889 5.555555 -5.000000
v 2.777778 5.555555 -5.000000
v 1.666667 5.555555 -5.000000
v 0.555556 5.555555 -5.000000
v -0.555555 5.555555 -5.000000
v -1.666667 5.555555 -5.000000
v -2.777778 5.555555 -5.000000
v -3.888889 5.555555 -5.000000
v -5.000000 5.555555 -5.000000
v 5.000000 6.666666 -4.999999
v 3.888889 6.666666 -4.999999
v 2.777778 6.666666 -4.999999
v 1.666667 6.666666 -4.999999
v 0.555556 6.666666 -4.999999
v -0.555555 6.666666 -4.999999
v -1.666667 6.666666 -4.999999
v -2.777778 6.666666 -4.999999
v -3.888889 6.666666 -4.999999
v -5.000000 6.666666 -4.999999
v 5.000000 7.777778 -4.999998
v 3.888889 7.777778 -4.999998
v 2.777778 7.777778 -4.999998
v 1.666667 7.777778 -4.999998
v 0.555556 7.777778 -4.999998
v -0.555555 7.777778 -4.999998
v -1.666667 7.777778 -4.999998
v -2.777778 7.777778 -4.999998
v -3.888889 7.777778 -4.999998
v -5.000000 7.777778 -4.999998
v 5.000000 8.888888 -4.999998
v 3.888889 8.888888 -4.999998
v 2.777778 8.888888 -4.999998
v 1.666667 8.888888 -4.999998
v 0.555556 8.888888 -4.999998
v -0.555555 8.888888 -4.999998
v -1.666667 8.888888 -4.999998
v -2.777778 8.888888 -4.999998
v -3.888889 8.888888 -4.999998
v -5.000000 8.888888 -4.999998
v 5.000000 10.000000 -4.999997
v 3.888889 10.000000 -4.999997
v 2.777778 10.000000 -4.999997
v 1.666667 10.000000 -4.999997
v 0.555556 10.000000 -4.999997
v -0.555555 10.000000 -4.999997
v -1.666667 10.000000 -4.999997
v -2.777778 10.000000 -4.999997
v -3.888889 10.000000 -4.999997
v -5.000000 10.000000 -4.999997
vn 0.000000 1.000000 0.000000
vn 1.000000 -0.000000 0.000000
vn 1.000000 -0.000001 0.000000
vn 0.000000 -0.000000 1.000000
vn 0.000000 -0.000001 1.000000
s off
f 18//1 19//1 9//1
f 18//1 9//1 8//1
f 12//1 13//1 3//1
f 12//1 3//1 2//1
f 19//1 20//1 10//1
f 19//1 10//1 9//1
f 13//1 14//1 4//1
f 13//1 4//1 3//1
f 14//1 15//1 5//1
f 14//1 5//1 4//1
f 15//1 16//1 6//1
f 15//1 6//1 5//1
f 16//1 17//1 7//1
f 16//1 7//1 6//1
f 17//1 18//1 8//1
f 17//1 8//1 7//1
f 2//1 1//1 11//1
f 2//1 11//1 12//1
f 26//1 27//1 17//1
f 26//1 17//1 16//1
f 27//1 28//1 18//1
f 27//1 18//1 17//1
f 21//1 22//1 12//1
f 21//1 12//1 11//1
f 28//1 29//1 19//1
f 28//1 19//1 18//1
f 22//1 23//1 13//1
f 22//1 13//1 12//1
f 29//1 30//1 20//1
f 29//1 20//1 19//1
f 23//1 24//1 14//1
f 23//1 14//1 13//1
f 24//1 25//1 15//1
f 24//1 15//1 14//1
f 25//1 26//1 16//1
f 25//1 16//1 15//1
f 35//1 36//1 26//1
f 35//1 26//1 25//1
f 36//1 37//1 27//1
f 36//1 27//1 26//1
f 37//1 38//1 28//1
f 37//1 28//1 27//1
f 31//1 32//1 22//1
f 31//1 22//1 21//1
f 38//1 39//1 29//1
f 38//1 29//1 28//1
f 32//1 33//1 23//1
f 32//1 23//1 22//1
f 39//1 40//1 30//1
f 39//1 30//1 29//1
f 33//1 34//1 24//1
f 33//1 24//1 23//1
f 34//1 35//1 25//1
f 34//1 25//1 24//1
f 45//1 46//1 36//1
f 45//1 36//1 35//1
f 46//1 47//1 37//1
f 46//1 37//1 36//1
f 47//1 48//1 38//1
f 47//1 38//1 37//1
f 41//1 42//1 32//1
f 41//1 32//1 31//1
f 48//1 49//1 39//1
f 48//1 39//1 38//1
f 42//1 43//1 33//1
f 42//1 33//1 32//1
f 49//1 50//1 40//1
f 49//1 40//1 39//1
f 43//1 44//1 34//1
f 43//1 34//1 33//1
f 44//1 45//1 35//1
f 44//1 35//1 34//1
f 54//1 55//1 45//1
f 54//1 45//1 44//1
f 55//1 56//1 46//1
f 55//1 46//1 45//1
f 56//1 57//1 47//1
f 56//1 47//1 46//1
f 57//1 58//1 48//1
f 57//1 48//1 47//1
f 51//1 52//1 42//1
f 51//1 42//1 41//1
f 58//1 59//1 49//1
f 58//1 49//1 48//1
f 52//1 53//1 43//1
f 52//1 43//1 42//1
f 59//1 60//1 50//1
f 59//1 50//1 49//1
f 53//1 54//1 44//1
f 53//1 44//1 43//1
f 64//1 65//1 55//1
f 64//1 55//1 54//1
f 65//1 66//1 56//1
f 65//1 56//1 55//1
f 66//1 67//1 57//1
f 66//1 57//1 56//1
f 67//1 68//1 58//1
f 67//1 58//1 57//1
f 61//1 62//1 52//1
f 61//1 52//1 51//1
f 68//1 69//1 59//1
f 68//1 59//1 58//1
f 62//1 63//1 53//1
f 62//1 53//1 52//1
f 69//1 70//1 60//1
f 69//1 60//1 59//1
f 63//1 64//1 54//1
f 63//1 54//1 53//1
f 79//1 80//1 70//1
f 79//1 70//1 69//1
f 73//1 74//1 64//1
f 73//1 64//1 63//1
f 74//1 75//1 65//1
f 74//1 65//1 64//1
f 75//1 76//1 66//1
f 75//1 66//1 65//1
f 76//1 77//1 67//1
f 76//1 67//1 66//1
f 77//1 78//1 68//1
f 77//1 68//1 67//1
f 71//1 72//1 62//1
f 71//1 62//1 61//1
f 78//1 79//1 69//1
f 78//1 69//1 68//1
f 72//1 73//1 63//1
f 72//1 63//1 62//1
f 89//1 90//1 80//1
f 89//1 80//1 79//1
f 83//1 84//1 74//1
f 83//1 74//1 73//1
f 84//1 85//1 75//1
f 84//1 75//1 74//1
f 85//1 86//1 76//1
f 85//1 76//1 75//1
f 86//1 87//1 77//1
f 86//1 77//1 76//1
f 87//1 88//1 78//1
f 87//1 78//1 77//1
f 81//1 82//1 72//1
f 81//1 72//1 71//1
f 88//1 89//1 79//1
f 88//1 79//1 78//1
f 82//1 83//1 73//1
f 82//1 73//1 72//1
f 98//1 99//1 89//1
f 98//1 89//1 88//1
f 92//1 93//1 83//1
f 92//1 83//1 82//1
f 99//1 100//1 90//1
f 99//1 90//1 89//1
f 93//1 94//1 84//1
f 93//1 84//1 83//1
f 94//1 95//1 85//1
f 94//1 85//1 84//1
f 95//1 96//1 86//1
f 95//1 86//1 85//1
f 96//1 97//1 87//1
f 96//1 87//1 86//1
f 97//1 98//1 88//1
f 97//1 88//1 87//1
f 91//1 92//1 82//1
f 91//1 82//1 81//1
f 112//2 113//2 103//2
f 112//2 103//2 102//2
f 119//3 120//3 110//3
f 119//3 110//3 109//3
f 113//3 114//3 104//3
f 113//3 104//3 103//3
f 114//2 115//2 105//2
f 114//2 105//2 104//2
f 115//3 116//3 106//3
f 115//3 106//3 105//3
f 116//2 117//2 107//2
f 116//2 107//2 106//2
f 117//3 118//3 108//3
f 117//3 108//3 107//3
f 111//2 112//2 102//2
f 111//2 102//2 101//2
f 118//2 119//2 109//2
f 118//2 109//2 108//2
f 126//2 127//2 117//2
f 126//2 117//2 116//2
f 127//3 128//3 118//3
f 127//3 118//3 117//3
f 121//2 122//2 112//2
f 121//2 112//2 111//2
f 128//2 129//2 119//2
f 128//2 119//2 118//2
f 122//2 123//2 113//2
f 122//2 113//2 112//2
f 129//3 130//3 120//3
f 129//3 120//3 119//3
f 123//3 124//3 114//3
f 123//3 114//3 113//3
f 124//2 125//2 115//2
f 124//2 115//2 114//2
f 125//3 126//3 116//3
f 125//3 116//3 115//3
f 135//3 136//3 126//3
f 135//3 126//3 125//3
f 136//2 137//2 127//2
f 136//2 127//2 126//2
f 137//3 138//3 128//3
f 137//3 128//3 127//3
f 131//2 132//2 122//2
f 131//2 122//2 121//2
f 138//2 139//2 129//2
f 138//2 129//2 128//2
f 132//2 133//2 123//2
f 132//2 123//2 122//2
f 139//3 140//3 130//3
f 139//3 130//3 129//3
f 133//3 134//3 124//3
f 133//3 124//3 123//3
f 134//2 135//2 125//2
f 134//2 125//2 124//2
f 145//3 146//3 136//3
f 145//3 136//3 135//3
f 146//2 147//2 137//2
f 146//2 137//2 136//2
f 147//3 148//3 138//3
f 147//3 138//3 137//3
f 141//2 142//2 132//2
f 141//2 132//2 131//2
f 148//2 149//2 139//2
f 148//2 139//2 138//2
f 142//2 143//2 133//2
f 142//2 133//2 132//2
f 149//3 150//3 140//3
f 149//3 140//3 139//3
f 143//3 144//3 134//3
f 143//3 134//3 133//3
f 144//2 145//2 135//2
f 144//2 135//2 134//2
f 154//2 155//2 145//2
f 154//2 145//2 144//2
f 155//3 156//3 146//3
f 155//3 146//3 145//3
f 156//2 157//2 147//2
f 156//2 147//2 146//2
f 157//3 158//3 148//3
f 157//3 148//3 147//3
f 151//2 152//2 142//2
f 151//2 142//2 141//2
f 158//2 159//2 149//2
f 158//2 149//2 148//2
f 152//2 153//2 143//2
f 152//2 143//2 142//2
f 159//3 160//3 150//3
f 159//3 150//3 149//3
f 153//3 154//3 144//3
f 153//3 144//3 143//3
f 164//2 165//2 155//2
f 164//2 155//2 154//2
f 165//3 166//3 156//3
f 165//3 156//3 155//3
f 166//2 167//2 157//2
f 166//2 157//2 156//2
f 167//3 168//3 158//3
f 167//3 158//3 157//3
f 161//2 162//2 152//2
f 161//2 152//2 151//2
f 168//2 169//2 159//2
f 168//2 159//2 158//2
f 162//2 163//2 153//2
f 162//2 153//2 152//2
f 169//3 170//3 160//3
f 169//3 160//3 159//3
f 163//3 164//3 154//3
f 163//3 154//3 153//3
f 179//3 180//3 170//3
f 179//3 170//3 169//3
f 173//3 174//3 164//3
f 173//3 164//3 163//3
f 174//2 175//2 165//2
f 174//2 165//2 164//2
f 175//3 176//3 166//3
f 175//3 166//3 165//3
f 176//2 177//2 167//2
f 176//2 167//2 166//2
f 177//3 178//3 168//3
f 177//3 168//3 167//3
f 171//2 172//2 162//2
f 171//2 162//2 161//2
f 178//2 179//2 169//2
f 178//2 169//2 168//2
f 172//2 173//2 163//2
f 172//2 163//2 162//2
f 189//3 190//3 180//3
f 189//3 180//3 179//3
f 183//3 184//3 174//3
f 183//3 174//3 173//3
f 184//2 185//2 175//2
f 184//2 175//2 174//2
f 185//3 186//3 176//3
f 185//3 176//3 175//3
f 186//2 187//2 177//2
f 186//2 177//2 176//2
f 187//3 188//3 178//3
f 187//3 178//3 177//3
f 181//2 182//2 172//2
f 181//2 172//2 171//2
f 188//2 189//2 179//2
f 188//2 179//2 178//2
f 182//2 183//2 173//2
f 182//2 173//2 172//2
f 198//2 199//2 189//2
f 198//2 189//2 188//2
f 192//2 193//2 183//2
f 192//2 183//2 182//2
f 199//3 200//3 190//3
f 199//3 190//3 189//3
f 193//3 194//3 184//3
f 193//3 184//3 183//3
f 194//2 195//2 185//2
f 194//2 185//2 184//2
f 195//3 196//3 186//3
f 195//3 186//3 185//3
f 196//2 197//2 187//2
f 196//2 187//2 186//2
f 197//3 198//3 188//3
f 197//3 188//3 187//3
f 191//2 192//2 182//2
f 191//2 182//2 181//2
f 214//4 215//4 205//4
f 214//4 205//4 204//4
f 215//4 216//4 206//4
f 215//4 206//4 205//4
f 216//4 217//4 207//4
f 216//4 207//4 206//4
f 217//4 218//4 208//4
f 217//4 208//4 207//4
f 211//4 212//4 202//4
f 211//4 202//4 201//4
f 218//4 219//4 209//4
f 218//4 209//4 208//4
f 212//4 213//4 203//4
f 212//4 203//4 202//4
f 219//4 220//4 210//4
f 219//4 210//4 209//4
f 213//4 214//4 204//4
f 213//4 204//4 203//4
f 228//4 229//4 219//4
f 228//4 219//4 218//4
f 222//4 223//4 213//4
f 222//4 213//4 212//4
f 229//4 230//4 220//4
f 229//4 220//4 219//4
f 223//4 224//4 214//4
f 223//4 214//4 213//4
f 224//4 225//4 215//4
f 224//4 215//4 214//4
f 225//4 226//4 216//4
f 225//4 216//4 215//4
f 226//4 227//4 217//4
f 226//4 217//4 216//4
f 227//4 228//4 218//4
f 227//4 218//4 217//4
f 221//4 222//4 212//4
f 221//4 212//4 211//4
f 237//5 238//5 228//5
f 237//5 228//5 227//5
f 231//5 232//5 222//5
f 231//5 222//5 221//5
f 238//5 239//5 229//5
f 238//5 229//5 228//5
f 232//5 233//5 223//5
f 232//5 223//5 222//5
f 239//5 240//5 230//5
f 239//5 230//5 229//5
f 233//5 234//5 224//5
f 233//5 224//5 223//5
f 234//5 235//5 225//5
f 234//5 225//5 224//5
f 235//5 236//5 226//5
f 235//5 226//5 225//5
f 236//5 237//5 227//5
f 236//5 227//5 226//5
f 247//4 248//4 238//4
f 247//4 238//4 237//4
f 241//4 242//4 232//4
f 241//4 232//4 231//4
f 248//4 249//4 239//4
f 248//4 239//4 238//4
f 242//4 243//4 233//4
f 242//4 233//4 232//4
f 249//4 250//4 240//4
f 249//4 240//4 239//4
f 243//4 244//4 234//4
f 243//4 234//4 233//4
f 244//4 245//4 235//4
f 244//4 235//4 234//4
f 245//4 246//4 236//4
f 245//4 236//4 235//4
f 246//4 247//4 237//4
f 246//4 237//4 236//4
f 256//5 257//5 247//5
f 256//5 247//5 246//5
f 257//5 258//5 248//5
f 257//5 248//5 247//5
f 251//5 252//5 242//5
f 251//5 242//5 241//5
f 258//5 259//5 249//5
f 258//5 249//5 248//5
f 252//5 253//5 243//5
f 252//5 243//5 242//5
f 259//5 260//5 250//5
f 259//5 250//5 249//5
f 253//5 254//5 244//5
f 253//5 244//5 243//5
f 254//5 255//5 245//5
f 254//5 245//5 244//5
f 255//5 256//5 246//5
f 255//5 246//5 245//5
f 266//4 267//4 257//4
f 266//4 257//4 256//4
f 267//4 268//4 258//4
f 267//4 258//4 257//4
f 261//4 262//4 252//4
f 261//4 252//4 251//4
f 268//4 269//4 259//4
f 268//4 259//4 258//4
f 262//4 263//4 253//4
f 262//4 253//4 252//4
f 269//4 270//4 260//4
f 269//4 260//4 259//4
f 263//4 264//4 254//4
f 263//4 254//4 253//4
f 264//4 265//4 255//4
f 264//4 255//4 254//4
f 265//4 266//4 256//4
f 265//4 256//4 255//4
f 275//5 276//5 266//5
f 275//5 266//5 265//5
f 276//5 277//5 267//5
f 276//5 267//5 266//5
f 277//5 278//5 268//5
f 277//5 268//5 267//5
f 271//5 272//5 262//5
f 271//5 262//5 261//5
f 278//5 279//5 269//5
f 278//5 269//5 268//5
f 272//5 273//5 263//5
f 272//5 263//5 262//5
f 279//5 280//5 270//5
f 279//5 270//5 269//5
f 273//5 274//5 264//5
f 273//5 264//5 263//5
f 274//5 275//5 265//5
f 274//5 265//5 264//5
f 285//4 286//4 276//4
f 285//4 276//4 275//4
f 286//4 287//4 277//4
f 286//4 277//4 276//4
f 287//4 288//4 278//4
f 287//4 278//4 277//4
f 281//4 282//4 272//4
f 281//4 272//4 271//4
f 288//4 289//4 279//4
f 288//4 279//4 278//4
f 282//4 283//4 273//4
f 282//4 273//4 272//4
f 289//4 290//4 280//4
f 289//4 280//4 279//4
f 283//4 284//4 274//4
f 283//4 274//4 273//4
f 284//4 285//4 275//4
f 284//4 275//4 274//4
f 294//5 295//5 285//5
f 294//5 285//5 284//5
f 295//5 296//5 286//5
f 295//5 286//5 285//5
f 296//5 297//5 287//5
f 296//5 287//5 286//5
f 297//5 298//5 288//5
f 297//5 288//5 287//5
f 291//5 292//5 282//5
f 291//5 282//5 281//5
f 298//5 299//5 289//5
f 298//5 289//5 288//5
f 292//5 293//5 283//5
f 292//5 283//5 282//5
f 299//5 300//5 290//5
f 299//5 290//5 289//5
f 293//5 294//5 284//5
f 293//5 284//5 283//5
