# Blender v2.63 (sub 0) OBJ File: 'wall.blend'
# www.blender.org
o Grid
v -5.000003 -4.999996 0.049997
v -5.000002 -3.888885 0.049997
v -5.000002 -2.777775 0.049997
v -5.000001 -1.666663 0.049997
v -5.000000 -0.555552 0.049997
v -5.000000 0.555559 0.049997
v -4.999999 1.666670 0.049997
v -4.999998 2.777781 0.049997
v -4.999998 3.888892 0.049997
v -4.999997 5.000003 0.049997
v -3.888892 -4.999997 0.049998
v -3.888891 -3.888886 0.049998
v -3.888891 -2.777775 0.049998
v -3.888890 -1.666664 0.049998
v -3.888889 -0.555553 0.049998
v -3.888889 0.555558 0.049998
v -3.888888 1.666669 0.049998
v -3.888887 2.777780 0.049998
v -3.888886 3.888891 0.049998
v -3.888886 5.000002 0.049998
v -2.777781 -4.999998 0.049998
v -2.777780 -3.888887 0.049998
v -2.777780 -2.777776 0.049998
v -2.777779 -1.666665 0.049998
v -2.777778 -0.555554 0.049998
v -2.777778 0.555557 0.049998
v -2.777777 1.666669 0.049998
v -2.777776 2.777780 0.049998
v -2.777776 3.888891 0.049998
v -2.777775 5.000002 0.049998
v -1.666670 -4.999999 0.049999
v -1.666669 -3.888888 0.049999
v -1.666669 -2.777777 0.049999
v -1.666668 -1.666665 0.049999
v -1.666667 -0.555554 0.049999
v -1.666667 0.555557 0.049999
v -1.666666 1.666668 0.049999
v -1.666665 2.777779 0.049999
v -1.666664 3.888890 0.049999
v -1.666664 5.000001 0.049999
v -0.555559 -4.999999 0.050000
v -0.555558 -3.888888 0.050000
v -0.555558 -2.777777 0.050000
v -0.555557 -1.666666 0.050000
v -0.555556 -0.555555 0.050000
v -0.555555 0.555556 0.050000
v -0.555555 1.666667 0.050000
v -0.555554 2.777778 0.050000
v -0.555553 3.888889 0.050000
v -0.555553 5.000000 0.050000
v 0.555552 -5.000000 0.050000
v 0.555553 -3.888889 0.050000
v 0.555553 -2.777778 0.050000
v 0.555554 -1.666667 0.050000
v 0.555555 -0.555556 0.050000
v 0.555556 0.555555 0.050000
v 0.555556 1.666667 0.050000
v 0.555557 2.777778 0.050000
v 0.555558 3.888889 0.050000
v 0.555559 5.000000 0.050000
v 1.666663 -5.000000 0.050001
v 1.666664 -3.888890 0.050001
v 1.666665 -2.777779 0.050001
v 1.666665 -1.666668 0.050001
v 1.666666 -0.555556 0.050001
v 1.666667 0.555555 0.050001
v 1.666668 1.666666 0.050001
v 1.666668 2.777777 0.050001
v 1.666669 3.888888 0.050001
v 1.666670 4.999999 0.050001
v 2.777775 -5.000001 0.050002
v 2.777775 -3.888890 0.050002
v 2.777776 -2.777779 0.050002
v 2.777777 -1.666668 0.050002
v 2.777777 -0.555557 0.050002
v 2.777778 0.555554 0.050002
v 2.777779 1.666665 0.050002
v 2.777779 2.777776 0.050002
v 2.777780 3.888887 0.050002
v 2.777781 4.999998 0.050002
v 3.888885 -5.000002 0.050003
v 3.888886 -3.888891 0.050003
v 3.888887 -2.777780 0.050003
v 3.888888 -1.666669 0.050003
v 3.888888 -0.555558 0.050003
v 3.888889 0.555553 0.050003
v 3.888890 1.666664 0.050003
v 3.888890 2.777776 0.050003
v 3.888891 3.888886 0.050003
v 3.888892 4.999998 0.050003
v 4.999996 -5.000003 0.050003
v 4.999997 -3.888892 0.050003
v 4.999998 -2.777781 0.050003
v 4.999999 -1.666670 0.050003
v 4.999999 -0.555559 0.050003
v 5.000000 0.555552 0.050003
v 5.000000 1.666664 0.050003
v 5.000001 2.777775 0.050003
v 5.000002 3.888886 0.050003
v 5.000003 4.999997 0.050003
v -5.000003 -4.999996 -0.050003
v -5.000002 -3.888886 -0.050003
v -5.000002 -2.777775 -0.050003
v -5.000001 -1.666664 -0.050003
v -5.000000 -0.555553 -0.050003
v -5.000000 0.555559 -0.050003
v -4.999999 1.666670 -0.050003
v -4.999998 2.777781 -0.050003
v -4.999998 3.888892 -0.050003
v -4.999997 5.000003 -0.050003
v -3.888892 -4.999997 -0.050002
v -3.888891 -3.888886 -0.050002
v -3.888891 -2.777776 -0.050002
v -3.888890 -1.666664 -0.050002
v -3.888889 -0.555553 -0.050002
v -3.888889 0.555558 -0.050002
v -3.888888 1.666669 -0.050002
v -3.888887 2.777780 -0.050002
v -3.888886 3.888891 -0.050002
v -3.888886 5.000002 -0.050002
v -2.777781 -4.999998 -0.050002
v -2.777780 -3.888887 -0.050002
v -2.777780 -2.777776 -0.050002
v -2.777779 -1.666665 -0.050002
v -2.777778 -0.555554 -0.050002
v -2.777778 0.555557 -0.050002
v -2.777777 1.666668 -0.050002
v -2.777776 2.777779 -0.050002
v -2.777776 3.888890 -0.050002
v -2.777775 5.000001 -0.050002
v -1.666670 -4.999999 -0.050001
v -1.666669 -3.888888 -0.050001
v -1.666669 -2.777777 -0.050001
v -1.666668 -1.666666 -0.050001
v -1.666667 -0.555555 -0.050001
v -1.666667 0.555556 -0.050001
v -1.666666 1.666668 -0.050001
v -1.666665 2.777779 -0.050001
v -1.666664 3.888890 -0.050001
v -1.666664 5.000000 -0.050001
v -0.555559 -4.999999 -0.050000
v -0.555558 -3.888889 -0.050000
v -0.555557 -2.777778 -0.050000
v -0.555557 -1.666667 -0.050000
v -0.555556 -0.555555 -0.050000
v -0.555555 0.555556 -0.050000
v -0.555555 1.666667 -0.050000
v -0.555554 2.777778 -0.050000
v -0.555553 3.888889 -0.050000
v -0.555552 5.000000 -0.050000
v 0.555552 -5.000000 -0.050000
v 0.555553 -3.888889 -0.050000
v 0.555554 -2.777778 -0.050000
v 0.555554 -1.666667 -0.050000
v 0.555555 -0.555556 -0.050000
v 0.555556 0.555555 -0.050000
v 0.555556 1.666666 -0.050000
v 0.555557 2.777777 -0.050000
v 0.555558 3.888888 -0.050000
v 0.555559 4.999999 -0.050000
v 1.666663 -5.000000 -0.049999
v 1.666664 -3.888890 -0.049999
v 1.666665 -2.777779 -0.049999
v 1.666665 -1.666668 -0.049999
v 1.666666 -0.555557 -0.049999
v 1.666667 0.555554 -0.049999
v 1.666668 1.666665 -0.049999
v 1.666668 2.777777 -0.049999
v 1.666669 3.888888 -0.049999
v 1.666670 4.999999 -0.049999
v 2.777775 -5.000001 -0.049998
v 2.777775 -3.888891 -0.049998
v 2.777776 -2.777780 -0.049998
v 2.777777 -1.666669 -0.049998
v 2.777777 -0.555558 -0.049998
v 2.777778 0.555554 -0.049998
v 2.777779 1.666665 -0.049998
v 2.777779 2.777776 -0.049998
v 2.777780 3.888887 -0.049998
v 2.777781 4.999998 -0.049998
v 3.888885 -5.000002 -0.049998
v 3.888886 -3.888891 -0.049998
v 3.888887 -2.777780 -0.049998
v 3.888888 -1.666669 -0.049998
v 3.888888 -0.555558 -0.049998
v 3.888889 0.555553 -0.049998
v 3.888890 1.666664 -0.049998
v 3.888890 2.777775 -0.049998
v 3.888891 3.888886 -0.049998
v 3.888892 4.999997 -0.049998
v 4.999996 -5.000003 -0.049997
v 4.999997 -3.888892 -0.049997
v 4.999998 -2.777781 -0.049997
v 4.999999 -1.666670 -0.049997
v 4.999999 -0.555559 -0.049997
v 5.000000 0.555552 -0.049997
v 5.000000 1.666663 -0.049997
v 5.000001 2.777775 -0.049997
v 5.000002 3.888885 -0.049997
v 5.000003 4.999996 -0.049997
vn -0.000001 0.000000 1.000000
vn 0.000001 -0.000000 -1.000000
vn 0.000001 1.000000 -0.000005
vn 0.000000 1.000000 -0.000005
vn -1.000000 0.000001 -0.000000
vn -1.000000 0.000000 -0.000000
vn -0.000001 -1.000000 0.000000
vn -0.000000 -1.000000 -0.000000
vn 1.000000 -0.000001 0.000000
vn 1.000000 -0.000000 0.000000
s off
f 19//1 20//1 10//1
f 19//1 10//1 9//1
f 13//1 14//1 4//1
f 13//1 4//1 3//1
f 14//1 15//1 5//1
f 14//1 5//1 4//1
f 15//1 16//1 6//1
f 15//1 6//1 5//1
f 16//1 17//1 7//1
f 16//1 7//1 6//1
f 17//1 18//1 8//1
f 17//1 8//1 7//1
f 2//1 1//1 11//1
f 2//1 11//1 12//1
f 18//1 19//1 9//1
f 18//1 9//1 8//1
f 12//1 13//1 3//1
f 12//1 3//1 2//1
f 26//1 27//1 17//1
f 26//1 17//1 16//1
f 27//1 28//1 18//1
f 27//1 18//1 17//1
f 21//1 22//1 12//1
f 21//1 12//1 11//1
f 28//1 29//1 19//1
f 28//1 19//1 18//1
f 22//1 23//1 13//1
f 22//1 13//1 12//1
f 29//1 30//1 20//1
f 29//1 20//1 19//1
f 23//1 24//1 14//1
f 23//1 14//1 13//1
f 24//1 25//1 15//1
f 24//1 15//1 14//1
f 25//1 26//1 16//1
f 25//1 16//1 15//1
f 36//1 37//1 27//1
f 36//1 27//1 26//1
f 37//1 38//1 28//1
f 37//1 28//1 27//1
f 31//1 32//1 22//1
f 31//1 22//1 21//1
f 38//1 39//1 29//1
f 38//1 29//1 28//1
f 32//1 33//1 23//1
f 32//1 23//1 22//1
f 39//1 40//1 30//1
f 39//1 30//1 29//1
f 33//1 34//1 24//1
f 33//1 24//1 23//1
f 34//1 35//1 25//1
f 34//1 25//1 24//1
f 35//1 36//1 26//1
f 35//1 26//1 25//1
f 45//1 46//1 36//1
f 45//1 36//1 35//1
f 46//1 47//1 37//1
f 46//1 37//1 36//1
f 47//1 48//1 38//1
f 47//1 38//1 37//1
f 41//1 42//1 32//1
f 41//1 32//1 31//1
f 48//1 49//1 39//1
f 48//1 39//1 38//1
f 42//1 43//1 33//1
f 42//1 33//1 32//1
f 49//1 50//1 40//1
f 49//1 40//1 39//1
f 43//1 44//1 34//1
f 43//1 34//1 33//1
f 44//1 45//1 35//1
f 44//1 35//1 34//1
f 55//1 56//1 46//1
f 55//1 46//1 45//1
f 56//1 57//1 47//1
f 56//1 47//1 46//1
f 57//1 58//1 48//1
f 57//1 48//1 47//1
f 51//1 52//1 42//1
f 51//1 42//1 41//1
f 58//1 59//1 49//1
f 58//1 49//1 48//1
f 52//1 53//1 43//1
f 52//1 43//1 42//1
f 59//1 60//1 50//1
f 59//1 50//1 49//1
f 53//1 54//1 44//1
f 53//1 44//1 43//1
f 54//1 55//1 45//1
f 54//1 45//1 44//1
f 64//1 65//1 55//1
f 64//1 55//1 54//1
f 65//1 66//1 56//1
f 65//1 56//1 55//1
f 66//1 67//1 57//1
f 66//1 57//1 56//1
f 67//1 68//1 58//1
f 67//1 58//1 57//1
f 61//1 62//1 52//1
f 61//1 52//1 51//1
f 68//1 69//1 59//1
f 68//1 59//1 58//1
f 62//1 63//1 53//1
f 62//1 53//1 52//1
f 69//1 70//1 60//1
f 69//1 60//1 59//1
f 63//1 64//1 54//1
f 63//1 54//1 53//1
f 74//1 75//1 65//1
f 74//1 65//1 64//1
f 75//1 76//1 66//1
f 75//1 66//1 65//1
f 76//1 77//1 67//1
f 76//1 67//1 66//1
f 77//1 78//1 68//1
f 77//1 68//1 67//1
f 71//1 72//1 62//1
f 71//1 62//1 61//1
f 78//1 79//1 69//1
f 78//1 69//1 68//1
f 72//1 73//1 63//1
f 72//1 63//1 62//1
f 79//1 80//1 70//1
f 79//1 70//1 69//1
f 73//1 74//1 64//1
f 73//1 64//1 63//1
f 89//1 90//1 80//1
f 89//1 80//1 79//1
f 83//1 84//1 74//1
f 83//1 74//1 73//1
f 84//1 85//1 75//1
f 84//1 75//1 74//1
f 85//1 86//1 76//1
f 85//1 76//1 75//1
f 86//1 87//1 77//1
f 86//1 77//1 76//1
f 87//1 88//1 78//1
f 87//1 78//1 77//1
f 81//1 82//1 72//1
f 81//1 72//1 71//1
f 88//1 89//1 79//1
f 88//1 79//1 78//1
f 82//1 83//1 73//1
f 82//1 73//1 72//1
f 99//1 100//1 90//1
f 99//1 90//1 89//1
f 93//1 94//1 84//1
f 93//1 84//1 83//1
f 94//1 95//1 85//1
f 94//1 85//1 84//1
f 95//1 96//1 86//1
f 95//1 86//1 85//1
f 96//1 97//1 87//1
f 96//1 87//1 86//1
f 97//1 98//1 88//1
f 97//1 88//1 87//1
f 91//1 92//1 82//1
f 91//1 82//1 81//1
f 98//1 99//1 89//1
f 98//1 89//1 88//1
f 92//1 93//1 83//1
f 92//1 83//1 82//1
f 119//2 109//2 110//2
f 119//2 110//2 120//2
f 113//2 103//2 104//2
f 113//2 104//2 114//2
f 114//2 104//2 105//2
f 114//2 105//2 115//2
f 115//2 105//2 106//2
f 115//2 106//2 116//2
f 116//2 106//2 107//2
f 116//2 107//2 117//2
f 117//2 107//2 108//2
f 117//2 108//2 118//2
f 111//2 101//2 102//2
f 111//2 102//2 112//2
f 118//2 108//2 109//2
f 118//2 109//2 119//2
f 112//2 102//2 103//2
f 112//2 103//2 113//2
f 126//2 116//2 117//2
f 126//2 117//2 127//2
f 127//2 117//2 118//2
f 127//2 118//2 128//2
f 121//2 111//2 112//2
f 121//2 112//2 122//2
f 128//2 118//2 119//2
f 128//2 119//2 129//2
f 122//2 112//2 113//2
f 122//2 113//2 123//2
f 129//2 119//2 120//2
f 129//2 120//2 130//2
f 123//2 113//2 114//2
f 123//2 114//2 124//2
f 124//2 114//2 115//2
f 124//2 115//2 125//2
f 125//2 115//2 116//2
f 125//2 116//2 126//2
f 136//2 126//2 127//2
f 136//2 127//2 137//2
f 137//2 127//2 128//2
f 137//2 128//2 138//2
f 131//2 121//2 122//2
f 131//2 122//2 132//2
f 138//2 128//2 129//2
f 138//2 129//2 139//2
f 132//2 122//2 123//2
f 132//2 123//2 133//2
f 139//2 129//2 130//2
f 139//2 130//2 140//2
f 133//2 123//2 124//2
f 133//2 124//2 134//2
f 134//2 124//2 125//2
f 134//2 125//2 135//2
f 135//2 125//2 126//2
f 135//2 126//2 136//2
f 145//2 135//2 136//2
f 145//2 136//2 146//2
f 146//2 136//2 137//2
f 146//2 137//2 147//2
f 147//2 137//2 138//2
f 147//2 138//2 148//2
f 141//2 131//2 132//2
f 141//2 132//2 142//2
f 148//2 138//2 139//2
f 148//2 139//2 149//2
f 142//2 132//2 133//2
f 142//2 133//2 143//2
f 149//2 139//2 140//2
f 149//2 140//2 150//2
f 143//2 133//2 134//2
f 143//2 134//2 144//2
f 144//2 134//2 135//2
f 144//2 135//2 145//2
f 155//2 145//2 146//2
f 155//2 146//2 156//2
f 156//2 146//2 147//2
f 156//2 147//2 157//2
f 157//2 147//2 148//2
f 157//2 148//2 158//2
f 151//2 141//2 142//2
f 151//2 142//2 152//2
f 158//2 148//2 149//2
f 158//2 149//2 159//2
f 152//2 142//2 143//2
f 152//2 143//2 153//2
f 159//2 149//2 150//2
f 159//2 150//2 160//2
f 153//2 143//2 144//2
f 153//2 144//2 154//2
f 154//2 144//2 145//2
f 154//2 145//2 155//2
f 164//2 154//2 155//2
f 164//2 155//2 165//2
f 165//2 155//2 156//2
f 165//2 156//2 166//2
f 166//2 156//2 157//2
f 166//2 157//2 167//2
f 167//2 157//2 158//2
f 167//2 158//2 168//2
f 161//2 151//2 152//2
f 161//2 152//2 162//2
f 168//2 158//2 159//2
f 168//2 159//2 169//2
f 162//2 152//2 153//2
f 162//2 153//2 163//2
f 169//2 159//2 160//2
f 169//2 160//2 170//2
f 163//2 153//2 154//2
f 163//2 154//2 164//2
f 174//2 164//2 165//2
f 174//2 165//2 175//2
f 175//2 165//2 166//2
f 175//2 166//2 176//2
f 176//2 166//2 167//2
f 176//2 167//2 177//2
f 177//2 167//2 168//2
f 177//2 168//2 178//2
f 171//2 161//2 162//2
f 171//2 162//2 172//2
f 178//2 168//2 169//2
f 178//2 169//2 179//2
f 172//2 162//2 163//2
f 172//2 163//2 173//2
f 179//2 169//2 170//2
f 179//2 170//2 180//2
f 173//2 163//2 164//2
f 173//2 164//2 174//2
f 189//2 179//2 180//2
f 189//2 180//2 190//2
f 183//2 173//2 174//2
f 183//2 174//2 184//2
f 184//2 174//2 175//2
f 184//2 175//2 185//2
f 185//2 175//2 176//2
f 185//2 176//2 186//2
f 186//2 176//2 177//2
f 186//2 177//2 187//2
f 187//2 177//2 178//2
f 187//2 178//2 188//2
f 181//2 171//2 172//2
f 181//2 172//2 182//2
f 188//2 178//2 179//2
f 188//2 179//2 189//2
f 182//2 172//2 173//2
f 182//2 173//2 183//2
f 199//2 189//2 190//2
f 199//2 190//2 200//2
f 193//2 183//2 184//2
f 193//2 184//2 194//2
f 194//2 184//2 185//2
f 194//2 185//2 195//2
f 195//2 185//2 186//2
f 195//2 186//2 196//2
f 196//2 186//2 187//2
f 196//2 187//2 197//2
f 197//2 187//2 188//2
f 197//2 188//2 198//2
f 191//2 181//2 182//2
f 191//2 182//2 192//2
f 198//2 188//2 189//2
f 198//2 189//2 199//2
f 192//2 182//2 183//2
f 192//2 183//2 193//2
f 20//3 110//3 10//3
f 20//3 120//3 110//3
f 30//4 120//4 20//4
f 30//4 130//4 120//4
f 40//3 130//3 30//3
f 40//3 140//3 130//3
f 50//4 140//4 40//4
f 50//4 150//4 140//4
f 60//3 150//3 50//3
f 60//3 160//3 150//3
f 70//4 160//4 60//4
f 70//4 170//4 160//4
f 80//3 170//3 70//3
f 80//3 180//3 170//3
f 90//4 180//4 80//4
f 90//4 190//4 180//4
f 100//3 190//3 90//3
f 100//3 200//3 190//3
f 110//5 9//5 10//5
f 9//5 110//5 109//5
f 109//6 8//6 9//6
f 8//6 109//6 108//6
f 108//5 7//5 8//5
f 7//5 108//5 107//5
f 107//6 6//6 7//6
f 6//6 107//6 106//6
f 106//5 5//5 6//5
f 5//5 106//5 105//5
f 105//6 4//6 5//6
f 4//6 105//6 104//6
f 104//5 3//5 4//5
f 3//5 104//5 103//5
f 103//6 2//6 3//6
f 2//6 103//6 102//6
f 1//5 102//5 101//5
f 102//5 1//5 2//5
f 111//7 1//7 101//7
f 1//7 111//7 11//7
f 11//8 121//8 21//8
f 111//8 121//8 11//8
f 121//7 31//7 21//7
f 131//7 31//7 121//7
f 131//8 141//8 31//8
f 31//8 141//8 41//8
f 41//7 151//7 51//7
f 141//7 151//7 41//7
f 151//8 161//8 51//8
f 51//8 161//8 61//8
f 61//7 171//7 71//7
f 161//7 171//7 61//7
f 171//8 181//8 71//8
f 71//8 181//8 81//8
f 81//7 191//7 91//7
f 181//7 191//7 81//7
f 191//9 192//9 91//9
f 91//9 192//9 92//9
f 92//10 193//10 93//10
f 192//10 193//10 92//10
f 193//9 194//9 93//9
f 93//9 194//9 94//9
f 94//10 195//10 95//10
f 194//10 195//10 94//10
f 195//9 196//9 95//9
f 95//9 196//9 96//9
f 96//10 197//10 97//10
f 196//10 197//10 96//10
f 197//9 198//9 97//9
f 97//9 198//9 98//9
f 98//10 199//10 99//10
f 198//10 199//10 98//10
f 199//9 200//9 99//9
f 99//9 200//9 100//9
